<?xml version="1.0" encoding="UTF-8" standalone="no"?>
<svg
   xmlns:dc="http://purl.org/dc/elements/1.1/"
   xmlns:cc="http://creativecommons.org/ns#"
   xmlns:rdf="http://www.w3.org/1999/02/22-rdf-syntax-ns#"
   xmlns:svg="http://www.w3.org/2000/svg"
   xmlns="http://www.w3.org/2000/svg"
   id="svg8"
   version="1.1"
   viewBox="0 0 38.691578 17.855639"
   height="17.855639mm"
   width="38.691578mm">
  <defs
     id="defs2" />
  <metadata
     id="metadata5">
    <rdf:RDF>
      <cc:Work
         rdf:about="">
        <dc:format>image/svg+xml</dc:format>
        <dc:type
           rdf:resource="http://purl.org/dc/dcmitype/StillImage" />
        <dc:title></dc:title>
      </cc:Work>
    </rdf:RDF>
  </metadata>
  <g
     transform="translate(-34.356991,-41.657372)"
     id="layer3">
    <rect
       transform="rotate(90)"
       y="-55.3582"
       x="41.657372"
       height="8.8867121"
       width="17.855639"
       id="rect4526-3"
       style="fill:#0f9ec4;fill-opacity:1;stroke-width:0.18561177" />
  </g>
  <g
     transform="translate(-34.356991,-41.657372)"
     id="layer2">
    <rect
       y="45.042393"
       x="34.356991"
       height="8.8867121"
       width="12.180331"
       id="rect4526"
       style="fill:#ff5757;fill-opacity:1;stroke-width:0.15330185" />
    <rect
       style="fill:#ff5757;fill-opacity:1;stroke-width:0.08029433"
       id="rect4550"
       width="3.341444"
       height="8.8867121"
       x="55.357216"
       y="45.042393" />
    <rect
       style="fill:#ff5757;fill-opacity:0.66666667;stroke-width:0.13045162"
       id="rect4552"
       width="8.8198929"
       height="8.8867121"
       x="46.537323"
       y="45.042393" />
  </g>
  <g
     transform="translate(-34.356991,-41.657372)"
     id="layer1">
    <text
       id="text12"
       y="110.27975"
       x="504.22025"
       style="font-style:normal;font-variant:normal;font-weight:normal;font-stretch:normal;font-size:10.58333302px;line-height:1.25;font-family:'Source Sans Pro';-inkscape-font-specification:'Source Sans Pro';letter-spacing:0px;word-spacing:0px;fill:#000000;fill-opacity:1;stroke:none;stroke-width:0.26458332"
       xml:space="preserve"><tspan
         style="stroke-width:0.26458332"
         y="110.27975"
         x="504.22025"
         id="tspan10">===</tspan></text>
    <g
       id="text16"
       style="font-style:normal;font-variant:normal;font-weight:normal;font-stretch:normal;font-size:10.58333302px;line-height:1.25;font-family:'Source Sans Pro';-inkscape-font-specification:'Source Sans Pro';letter-spacing:1.32291663px;word-spacing:0px;fill:#000000;fill-opacity:1;stroke:none;stroke-width:0.26458332"
       aria-label="overlap">
      <path
         id="path970"
         style="font-style:normal;font-variant:normal;font-weight:bold;font-stretch:normal;font-size:8.46666622px;font-family:'Source Sans Pro';-inkscape-font-specification:'Source Sans Pro Bold';letter-spacing:1.32291663px;fill:#ffbd59;fill-opacity:1;stroke-width:0.26458332"
         d="m 39.313004,51.551082 q -0.397934,0 -0.770467,-0.143933 -0.372533,-0.1524 -0.6604,-0.4318 -0.2794,-0.2794 -0.448733,-0.6858 -0.169334,-0.414867 -0.169334,-0.9398 0,-0.524934 0.169334,-0.931334 0.169333,-0.414866 0.448733,-0.694266 0.287867,-0.2794 0.6604,-0.423333 0.372533,-0.1524 0.770467,-0.1524 0.397933,0 0.762,0.1524 0.372533,0.143933 0.651933,0.423333 0.287867,0.2794 0.4572,0.694266 0.169333,0.4064 0.169333,0.931334 0,0.524933 -0.169333,0.9398 -0.169333,0.4064 -0.4572,0.6858 -0.2794,0.2794 -0.651933,0.4318 -0.364067,0.143933 -0.762,0.143933 z m 0,-1.007533 q 0.381,0 0.575733,-0.321734 0.194733,-0.321733 0.194733,-0.872066 0,-0.550334 -0.194733,-0.872067 -0.194733,-0.321733 -0.575733,-0.321733 -0.389467,0 -0.5842,0.321733 -0.186267,0.321733 -0.186267,0.872067 0,0.550333 0.186267,0.872066 0.194733,0.321734 0.5842,0.321734 z" />
      <path
         id="path972"
         style="font-style:normal;font-variant:normal;font-weight:bold;font-stretch:normal;font-size:8.46666622px;font-family:'Source Sans Pro';-inkscape-font-specification:'Source Sans Pro Bold';letter-spacing:1.32291663px;fill:#ffbd59;fill-opacity:1;stroke-width:0.26458332"
         d="m 44.427928,51.449482 -1.413933,-4.199466 h 1.253067 l 0.541866,1.981199 q 0.08467,0.313267 0.160867,0.643467 0.08467,0.321733 0.169333,0.651933 h 0.03387 q 0.0762,-0.3302 0.1524,-0.651933 0.08467,-0.3302 0.169333,-0.643467 l 0.550334,-1.981199 h 1.193799 l -1.371599,4.199466 z" />
      <path
         id="path974"
         style="font-style:normal;font-variant:normal;font-weight:bold;font-stretch:normal;font-size:8.46666622px;font-family:'Source Sans Pro';-inkscape-font-specification:'Source Sans Pro Bold';letter-spacing:1.32291663px;fill:#ffbd59;fill-opacity:1;stroke-width:0.26458332"
         d="m 51.03087,51.551082 q -0.448733,0 -0.8382,-0.143933 -0.389467,-0.1524 -0.677333,-0.4318 -0.287867,-0.287867 -0.448733,-0.694267 -0.160867,-0.4064 -0.160867,-0.931333 0,-0.508 0.169333,-0.9144 0.169334,-0.414867 0.440267,-0.694267 0.2794,-0.287866 0.635,-0.440266 0.3556,-0.1524 0.7366,-0.1524 0.448733,0 0.778933,0.1524 0.338667,0.1524 0.5588,0.423333 0.2286,0.270933 0.338667,0.643466 0.110066,0.364067 0.110066,0.795867 0,0.169333 -0.01693,0.321733 -0.01693,0.1524 -0.03387,0.2286 h -2.5146 q 0.08467,0.4572 0.372534,0.677334 0.296333,0.211666 0.719666,0.211666 0.448734,0 0.905934,-0.2794 l 0.414866,0.753534 q -0.321733,0.220133 -0.719666,0.347133 -0.389467,0.127 -0.770467,0.127 z m -0.931333,-2.658533 h 1.515533 q 0,-0.3556 -0.160867,-0.575734 -0.160866,-0.220133 -0.541866,-0.220133 -0.296334,0 -0.524934,0.194733 -0.220133,0.194734 -0.287866,0.601134 z" />
      <path
         id="path976"
         style="font-style:normal;font-variant:normal;font-weight:bold;font-stretch:normal;font-size:8.46666622px;font-family:'Source Sans Pro';-inkscape-font-specification:'Source Sans Pro Bold';letter-spacing:1.32291663px;fill:#ffbd59;fill-opacity:1;stroke-width:0.26458332"
         d="m 54.856348,51.449482 v -4.199466 h 1.016 l 0.08467,0.736599 h 0.03387 q 0.2286,-0.431799 0.550333,-0.634999 0.321733,-0.2032 0.643467,-0.2032 0.1778,0 0.287866,0.0254 0.118534,0.01693 0.211667,0.05927 l -0.2032,1.075267 q -0.118533,-0.03387 -0.220133,-0.0508 -0.1016,-0.01693 -0.237067,-0.01693 -0.237067,0 -0.499533,0.169334 -0.254,0.169333 -0.423334,0.601133 v 2.4384 z" />
      <path
         id="path978"
         style="font-style:normal;font-variant:normal;font-weight:bold;font-stretch:normal;font-size:8.46666622px;font-family:'Source Sans Pro';-inkscape-font-specification:'Source Sans Pro Bold';letter-spacing:1.32291663px;fill:#ffbd59;fill-opacity:1;stroke-width:0.26458332"
         d="m 60.695702,51.551082 q -0.321733,0 -0.541866,-0.1016 -0.220134,-0.1016 -0.3556,-0.2794 -0.127,-0.186267 -0.186267,-0.440267 -0.05927,-0.262466 -0.05927,-0.5842 v -4.631266 h 1.2446 v 4.682066 q 0,0.194734 0.06773,0.270934 0.0762,0.0762 0.1524,0.0762 0.04233,0 0.06773,0 0.03387,0 0.08467,-0.01693 l 0.1524,0.922867 q -0.1016,0.04233 -0.262466,0.06773 -0.1524,0.03387 -0.364067,0.03387 z" />
      <path
         id="path980"
         style="font-style:normal;font-variant:normal;font-weight:bold;font-stretch:normal;font-size:8.46666622px;font-family:'Source Sans Pro';-inkscape-font-specification:'Source Sans Pro Bold';letter-spacing:1.32291663px;fill:#ffbd59;fill-opacity:1;stroke-width:0.26458332"
         d="m 64.348275,51.551082 q -0.287866,0 -0.524933,-0.1016 -0.2286,-0.09313 -0.389467,-0.262467 -0.160866,-0.1778 -0.254,-0.4064 -0.08467,-0.2286 -0.08467,-0.499533 0,-0.6604 0.5588,-1.032933 0.5588,-0.372534 1.8034,-0.499534 -0.01693,-0.2794 -0.169334,-0.440266 -0.143933,-0.169334 -0.491066,-0.169334 -0.270934,0 -0.541867,0.1016 -0.262467,0.1016 -0.567267,0.2794 l -0.448733,-0.821266 q 0.4064,-0.245533 0.846667,-0.397933 0.448733,-0.1524 0.948266,-0.1524 0.8128,0 1.236134,0.465666 0.4318,0.4572 0.4318,1.430867 v 2.404533 h -1.016 l -0.08467,-0.4318 h -0.03387 q -0.270933,0.237067 -0.567266,0.389467 -0.296334,0.143933 -0.651934,0.143933 z m 0.423334,-0.9652 q 0.211666,0 0.364066,-0.09313 0.1524,-0.09313 0.321734,-0.262467 v -0.7366 q -0.6604,0.09313 -0.9144,0.270933 -0.254,0.1778 -0.254,0.423334 0,0.2032 0.127,0.3048 0.135466,0.09313 0.3556,0.09313 z" />
      <path
         id="path982"
         style="font-style:normal;font-variant:normal;font-weight:bold;font-stretch:normal;font-size:8.46666622px;font-family:'Source Sans Pro';-inkscape-font-specification:'Source Sans Pro Bold';letter-spacing:1.32291663px;fill:#ffbd59;fill-opacity:1;stroke-width:0.26458332"
         d="m 69.077702,53.007349 v -5.757333 h 1.016 l 0.08467,0.414866 h 0.03387 q 0.245533,-0.220133 0.550333,-0.364066 0.313267,-0.1524 0.643467,-0.1524 0.381,0 0.6858,0.1524 0.3048,0.1524 0.516467,0.431799 0.211666,0.2794 0.321733,0.677334 0.118533,0.389466 0.118533,0.872066 0,0.541867 -0.1524,0.9652 -0.143933,0.414867 -0.397933,0.7112 -0.245533,0.287867 -0.567267,0.440267 -0.313266,0.1524 -0.651933,0.1524 -0.270933,0 -0.524933,-0.110067 -0.254,-0.118533 -0.474134,-0.3302 l 0.04233,0.668867 v 1.227667 z m 1.913466,-2.472267 q 0.321734,0 0.550334,-0.287867 0.2286,-0.296333 0.2286,-0.948266 0,-1.134534 -0.728134,-1.134534 -0.364066,0 -0.719666,0.381 v 1.718734 q 0.169333,0.1524 0.338666,0.211666 0.169334,0.05927 0.3302,0.05927 z" />
    </g>
  </g>
</svg>
